<svg xmlns="http://www.w3.org/2000/svg" width="39" height="11" fill="none"><path fill="#000" d="M.959 10V1.273h1.317V5.44h.106l3.66-4.167H7.7L4.18 5.202 7.713 10H6.128L3.307 6.1 2.276 7.287V10H.959Zm8.931.145c-.415 0-.79-.077-1.125-.23a1.895 1.895 0 0 1-.797-.678c-.193-.295-.29-.657-.29-1.086 0-.37.071-.674.214-.912.142-.239.333-.428.575-.567.241-.14.511-.244.81-.315a8.05 8.05 0 0 1 .911-.162l.955-.111c.244-.031.422-.081.533-.15.11-.068.166-.178.166-.332v-.03c0-.372-.105-.66-.316-.865-.207-.204-.517-.306-.928-.306-.43 0-.768.095-1.015.285a1.527 1.527 0 0 0-.507.627L7.88 5.04c.142-.398.35-.719.622-.963.275-.247.592-.426.95-.537a3.71 3.71 0 0 1 1.13-.17c.26 0 .538.03.83.093.296.06.571.17.827.332.259.162.47.394.635.695.165.298.247.686.247 1.163V10h-1.244v-.895h-.051a1.813 1.813 0 0 1-.371.486 1.97 1.97 0 0 1-.635.396 2.464 2.464 0 0 1-.929.158Zm.277-1.023c.352 0 .653-.07.903-.209.253-.139.445-.32.576-.545.133-.227.2-.47.2-.729v-.844a.664.664 0 0 1-.264.128c-.128.037-.274.07-.439.098l-.482.073-.392.05a3.158 3.158 0 0 0-.677.159c-.202.073-.364.18-.486.32-.12.136-.179.317-.179.545 0 .315.117.554.35.716.232.159.53.238.89.238Zm5.085-3.008V10h-1.275V3.455H15.2V4.52h.081c.15-.347.387-.625.708-.835.323-.21.731-.316 1.223-.316.446 0 .836.094 1.172.282.335.184.595.46.78.826.184.367.276.82.276 1.36V10h-1.274V5.99c0-.474-.123-.845-.37-1.112-.248-.27-.587-.405-1.019-.405-.295 0-.558.064-.788.192a1.379 1.379 0 0 0-.542.562c-.13.245-.195.54-.195.887Zm9.962-1.061-1.155.204a1.368 1.368 0 0 0-.23-.422 1.139 1.139 0 0 0-.418-.328 1.513 1.513 0 0 0-.66-.128c-.36 0-.662.081-.904.243-.24.16-.362.365-.362.618a.65.65 0 0 0 .243.528c.162.134.423.243.784.329l1.04.238c.602.14 1.051.354 1.347.644.295.29.443.666.443 1.129 0 .392-.114.741-.341 1.048-.225.304-.538.543-.942.716-.4.174-.865.26-1.393.26-.733 0-1.331-.156-1.794-.469-.463-.315-.747-.762-.853-1.342l1.232-.187c.077.32.234.563.473.728.239.162.55.243.933.243.418 0 .752-.087 1.002-.26.25-.176.375-.39.375-.643a.669.669 0 0 0-.23-.516c-.151-.14-.383-.244-.695-.315L22 7.128c-.61-.14-1.063-.36-1.355-.665-.29-.304-.435-.689-.435-1.155 0-.386.108-.724.324-1.014.216-.29.514-.516.895-.678.38-.164.817-.247 1.308-.247.708 0 1.264.154 1.67.46.407.305.675.712.806 1.224Zm3.446 5.08c-.614 0-1.15-.142-1.607-.423a2.845 2.845 0 0 1-1.065-1.18c-.253-.506-.38-1.097-.38-1.773 0-.679.127-1.273.38-1.781a2.84 2.84 0 0 1 1.065-1.185c.458-.281.993-.422 1.607-.422.613 0 1.149.14 1.606.422a2.84 2.84 0 0 1 1.066 1.185c.253.508.379 1.102.379 1.781 0 .676-.126 1.267-.38 1.773a2.83 2.83 0 0 1-1.065 1.18c-.457.281-.992.422-1.606.422Zm.004-1.07c.398 0 .727-.106.989-.316.261-.21.454-.49.58-.84.127-.349.191-.734.191-1.154 0-.418-.064-.801-.192-1.15a1.875 1.875 0 0 0-.58-.849c-.26-.213-.59-.32-.988-.32-.4 0-.733.107-.997.32a1.904 1.904 0 0 0-.584.848c-.125.35-.187.733-.187 1.15 0 .421.062.806.187 1.156.128.35.323.629.584.84.264.21.597.315.997.315ZM34.1 6.096V2.952h1.572c.154 0 .307.038.46.115a.949.949 0 0 1 .389.34.96.96 0 0 1 .157.563c0 .227-.054.42-.162.58a1.07 1.07 0 0 1-.405.362 1.063 1.063 0 0 1-.485.124h-1.117v-.542h.92a.457.457 0 0 0 .303-.132c.102-.088.154-.219.154-.392 0-.182-.052-.307-.154-.375a.514.514 0 0 0-.29-.102h-.609v2.604H34.1Zm1.935-1.475.763 1.475h-.806l-.733-1.475h.776Zm-.729 3.35c-.472 0-.913-.088-1.325-.265a3.427 3.427 0 0 1-1.82-1.82 3.336 3.336 0 0 1-.264-1.324c0-.472.088-.914.264-1.326a3.428 3.428 0 0 1 1.82-1.82 3.335 3.335 0 0 1 1.325-.264c.472 0 .913.088 1.325.265a3.427 3.427 0 0 1 1.82 1.82c.176.411.264.853.264 1.325 0 .471-.088.913-.264 1.325a3.426 3.426 0 0 1-1.82 1.82 3.335 3.335 0 0 1-1.325.264Zm0-.844c.472 0 .9-.115 1.287-.345.39-.233.699-.543.929-.93.23-.389.345-.819.345-1.29 0-.472-.115-.901-.345-1.287-.23-.39-.54-.7-.929-.93a2.445 2.445 0 0 0-1.287-.349c-.472 0-.902.117-1.291.35-.39.23-.699.54-.93.929-.23.386-.344.815-.344 1.287 0 .471.115.901.345 1.29.23.387.54.697.929.93.389.23.82.345 1.291.345Z"/></svg>